<svg viewBox="0 0 128 128" xmlns="http://www.w3.org/2000/svg"><rect fill="#1a2744" height="128" rx="16" width="128"/><rect fill="none" height="124" rx="14" stroke="#3a5f8a" stroke-width="2" width="124" x="2" y="2"/><rect fill="#2d4a7a" height="4" rx="1" width="90" x="19" y="62"/><path d="m19 62h90v1h-90z" fill="#3a5f8a" opacity=".5"/><g stroke-linecap="round"><path d="m19 46v16" stroke="#fff" stroke-width="2"/><path d="m41.5 46v16" stroke="#fff" stroke-width="2"/><path d="m64 46v16" stroke="#fff" stroke-width="2"/><path d="m86.5 46v16" stroke="#fff" stroke-width="2"/><path d="m109 46v16" stroke="#fff" stroke-width="2"/><path d="m30.25 53v9" stroke="#fff" stroke-width="1.5"/><path d="m52.75 53v9" stroke="#fff" stroke-width="1.5"/><path d="m75.25 53v9" stroke="#fff" stroke-width="1.5"/><path d="m97.75 53v9" stroke="#fff" stroke-width="1.5"/><path d="m19 66v14" stroke="#4da6ff" stroke-width="2"/><path d="m28 66v14" stroke="#4da6ff" stroke-width="2"/><path d="m37 66v14" stroke="#4da6ff" stroke-width="2"/><path d="m46 66v14" stroke="#4da6ff" stroke-width="2"/><path d="m55 66v14" stroke="#4da6ff" stroke-width="2"/><path d="m64 66v14" stroke="#4da6ff" stroke-width="2"/><path d="m73 66v14" stroke="#4da6ff" stroke-width="2"/><path d="m82 66v14" stroke="#4da6ff" stroke-width="2"/><path d="m91 66v14" stroke="#4da6ff" stroke-width="2"/><path d="m100 66v14" stroke="#4da6ff" stroke-width="2"/><path d="m109 66v14" stroke="#4da6ff" stroke-width="2"/><path d="m23.5 66v7" stroke="#4da6ff"/><path d="m32.5 66v7" stroke="#4da6ff"/><path d="m41.5 66v7" stroke="#4da6ff"/><path d="m50.5 66v7" stroke="#4da6ff"/><path d="m59.5 66v7" stroke="#4da6ff"/><path d="m68.5 66v7" stroke="#4da6ff"/><path d="m77.5 66v7" stroke="#4da6ff"/><path d="m86.5 66v7" stroke="#4da6ff"/><path d="m95.5 66v7" stroke="#4da6ff"/><path d="m104.5 66v7" stroke="#4da6ff"/></g></svg>