<svg xmlns="http://www.w3.org/2000/svg" viewBox="0 0 128 128">
  <!-- Background -->
  <rect width="128" height="128" rx="16" fill="#1a2744"/>
  <!-- Border -->
  <rect x="2" y="2" width="124" height="124" rx="14" fill="none" stroke="#3a5f8a" stroke-width="2"/>

  <!-- Ruler bar -->
  <rect x="19" y="62" width="90" height="4" rx="1" fill="#2d4a7a"/>
  <!-- Highlight -->
  <rect x="19" y="62" width="90" height="1" fill="#3a5f8a" opacity="0.5"/>

  <!-- Imperial ticks (top, white) — 5 major, 4 minor -->
  <line x1="19" y1="46" x2="19" y2="62" stroke="#fff" stroke-width="2" stroke-linecap="round"/>
  <line x1="41.5" y1="46" x2="41.5" y2="62" stroke="#fff" stroke-width="2" stroke-linecap="round"/>
  <line x1="64" y1="46" x2="64" y2="62" stroke="#fff" stroke-width="2" stroke-linecap="round"/>
  <line x1="86.5" y1="46" x2="86.5" y2="62" stroke="#fff" stroke-width="2" stroke-linecap="round"/>
  <line x1="109" y1="46" x2="109" y2="62" stroke="#fff" stroke-width="2" stroke-linecap="round"/>
  <line x1="30.25" y1="53" x2="30.25" y2="62" stroke="#fff" stroke-width="1.5" stroke-linecap="round"/>
  <line x1="52.75" y1="53" x2="52.75" y2="62" stroke="#fff" stroke-width="1.5" stroke-linecap="round"/>
  <line x1="75.25" y1="53" x2="75.25" y2="62" stroke="#fff" stroke-width="1.5" stroke-linecap="round"/>
  <line x1="97.75" y1="53" x2="97.75" y2="62" stroke="#fff" stroke-width="1.5" stroke-linecap="round"/>

  <!-- Metric ticks (bottom, accent blue) — 11 major, 10 minor -->
  <line x1="19" y1="66" x2="19" y2="80" stroke="#4da6ff" stroke-width="2" stroke-linecap="round"/>
  <line x1="28" y1="66" x2="28" y2="80" stroke="#4da6ff" stroke-width="2" stroke-linecap="round"/>
  <line x1="37" y1="66" x2="37" y2="80" stroke="#4da6ff" stroke-width="2" stroke-linecap="round"/>
  <line x1="46" y1="66" x2="46" y2="80" stroke="#4da6ff" stroke-width="2" stroke-linecap="round"/>
  <line x1="55" y1="66" x2="55" y2="80" stroke="#4da6ff" stroke-width="2" stroke-linecap="round"/>
  <line x1="64" y1="66" x2="64" y2="80" stroke="#4da6ff" stroke-width="2" stroke-linecap="round"/>
  <line x1="73" y1="66" x2="73" y2="80" stroke="#4da6ff" stroke-width="2" stroke-linecap="round"/>
  <line x1="82" y1="66" x2="82" y2="80" stroke="#4da6ff" stroke-width="2" stroke-linecap="round"/>
  <line x1="91" y1="66" x2="91" y2="80" stroke="#4da6ff" stroke-width="2" stroke-linecap="round"/>
  <line x1="100" y1="66" x2="100" y2="80" stroke="#4da6ff" stroke-width="2" stroke-linecap="round"/>
  <line x1="109" y1="66" x2="109" y2="80" stroke="#4da6ff" stroke-width="2" stroke-linecap="round"/>
  <line x1="23.5" y1="66" x2="23.5" y2="73" stroke="#4da6ff" stroke-width="1" stroke-linecap="round"/>
  <line x1="32.5" y1="66" x2="32.5" y2="73" stroke="#4da6ff" stroke-width="1" stroke-linecap="round"/>
  <line x1="41.5" y1="66" x2="41.5" y2="73" stroke="#4da6ff" stroke-width="1" stroke-linecap="round"/>
  <line x1="50.5" y1="66" x2="50.5" y2="73" stroke="#4da6ff" stroke-width="1" stroke-linecap="round"/>
  <line x1="59.5" y1="66" x2="59.5" y2="73" stroke="#4da6ff" stroke-width="1" stroke-linecap="round"/>
  <line x1="68.5" y1="66" x2="68.5" y2="73" stroke="#4da6ff" stroke-width="1" stroke-linecap="round"/>
  <line x1="77.5" y1="66" x2="77.5" y2="73" stroke="#4da6ff" stroke-width="1" stroke-linecap="round"/>
  <line x1="86.5" y1="66" x2="86.5" y2="73" stroke="#4da6ff" stroke-width="1" stroke-linecap="round"/>
  <line x1="95.5" y1="66" x2="95.5" y2="73" stroke="#4da6ff" stroke-width="1" stroke-linecap="round"/>
  <line x1="104.5" y1="66" x2="104.5" y2="73" stroke="#4da6ff" stroke-width="1" stroke-linecap="round"/>
</svg>
